<svg xmlns="http://www.w3.org/2000/svg" viewBox="-12 -3 106.36 106.36" preserveAspectRatio="xMaxYMid meet">
  <defs>
    <style>
      @media(prefers-color-scheme: dark) {
        :root {
          --bg: #000;
          --fg: #fff;
        }
      }

      path {
        fill: var(--fg, #000);
      }

      rect {
        fill: var(--bg, #fff);
      }
    </style>
  </defs>
  <rect height="100" width="100" />
  <path
    d="M34.81,83.51c0.24,2.51.72,6.38,1.06,7.85,15.52,4.11,26.15,2.09,28.63.39,1.84-1.27,3.08-1.91.57-7.11C59.44,87,47.78,86.8,34.81,83.51" />
  <path
    d="M28.52,90.59a3.32,3.32,0,0,0-3.16,5.69l-0.77,1.53a3.48,3.48,0,0,0,1.29.72,2.78,2.78,0,0,0,1.37.15L27.5,97a3.31,3.31,0,0,0,1-6.46" />
  <path
    d="M84.79,20.16c0.79-2.83-1-3.34-1.67-3.51L64.23,11.37c-1.46-.41-1-3.72-2.31-4.1L47.05,3.12c-1.35-.38-2.64,2.71-4.1,2.31L24.07,0.15C23.44,0,21.61-.54,20.82,2.29L16.52,17.66a0.32,0.32,0,0,1-.43.24l-1.35-.38a1,1,0,0,0-1.22.69,15.83,15.83,0,0,0-1.36,3.47,23.07,23.07,0,0,0-.78,4.19,0.93,0.93,0,0,0,.69,1.22l12.1,3.38a1.78,1.78,0,0,0,2.31-1.07c1.29-2.75,4.57-8,5.67-8.59,1.47-.82,10,0.59,10,0.59a9.42,9.42,0,0,0-.58,1.82c-0.33,1.35.43,4.65-.34,5.09C37,30.69,29.44,27.07,26.94,34.15c-6.36,18-11,25.7-18.1,30.39C12.16,68.43,20,72.54,31.29,76a5.38,5.38,0,0,1-.12-1.05,35.24,35.24,0,0,0-.28-4.12c-0.27-2.49-.42-3.7-0.48-4.95a13.51,13.51,0,0,1,.72-4.49l0.24-.83c0.84-2.88,3.53-10.89,4.62-13.15,0.19-.4.42-0.33,0.48-0.31s0.3,0.08.25,0.52c-0.29,2.48-2.32,10.69-3.17,13.57-0.08.29-.16,0.55-0.24,0.81A11,11,0,0,0,32.86,66c0,1.06.31,2.34,0.59,4.88a38,38,0,0,1,.29,4.25,5.4,5.4,0,0,0,.3,1.6l0.2,0.06c12.91,3.61,22.87,4.4,28.12,2.64-3.6-7.68-3.6-16.67.28-35.35,1.53-7.36-6.81-8.18-9.19-12.41-0.44-.77,2-3.2,2.37-4.52a7.59,7.59,0,0,0,.42-1.86s8.42,3.32,9.25,4.79c0.62,1.1.72,7.26,0.4,10.28a1.78,1.78,0,0,0,1.42,2.11l12.1,3.38a0.93,0.93,0,0,0,1.22-.69,22.91,22.91,0,0,0,1.5-4,15.86,15.86,0,0,0,.64-3.67,1,1,0,0,0-.68-1.22L80.73,36a0.32,0.32,0,0,1-.24-0.42" />
  <path
    d="M3.87,67.59C-1,70.92-.39,72.67,1,74.44c3.33,4.31,12.29,10.73,28.67,15.31l3.72,1c-0.26-1.29-.85-5.45-1.13-7.94C18.57,79,7.7,72.72,3.87,67.59" />
</svg>
